# xmcd
#
# Track frame offsets: 
#        182
#        10017
#        21732
#        37380
#        55230
#        70047
#        83542
#        97885
#        111390
#        126567
#
# Disc length: 1860 seconds
#
# Revision: 2
# Processed by: cddbd v1.5.2PL0 Copyright (c) Steve Scherf et al.
# Submitted via: ExactAudioCopy v0.99pb3
#
DISCID=8707420a
DTITLE=Mel Tillis - Best of Mel Tillis
DYEAR=1997
DGENRE=Country
TTITLE0=I AIN'T NEVER
TTITLE1=SOUTHERN RAIN
TTITLE2=YOUR BODY IS AN OUTLAW
TTITLE3=BLIND IN LOVE
TTITLE4=A MILLION OLD GOODBYES
TTITLE5=ONE NIGHT FEVER
TTITLE6=LYING TIME AGAIN
TTITLE7=STEPPIN' OUT
TTITLE8=TEXAS COWBOY NIGHT
TTITLE9=NEW PATCHES
EXTD=
EXTT0=
EXTT1=
EXTT2=
EXTT3=
EXTT4=
EXTT5=
EXTT6=
EXTT7=
EXTT8=
EXTT9=
PLAYORDER=
